<svg width="90" height="90" viewBox="0 0 90 90" fill="none" xmlns="http://www.w3.org/2000/svg">
<path fill-rule="evenodd" clip-rule="evenodd" d="M89.896 44.9271C89.896 69.7398 69.772 89.8544 44.9479 89.8544C20.124 89.8544 0 69.7398 0 44.9271C0 20.1145 20.124 0 44.9479 0C69.772 0 89.896 20.1145 89.896 44.9271Z" fill="#FF9040"/>
<path fill-rule="evenodd" clip-rule="evenodd" d="M74.9995 32.6757C72.6953 32.6757 70.8273 34.5427 70.8273 36.8458V47.0745H68.2296V41.1733C68.2296 39.218 66.6438 37.6326 64.6874 37.6326H38.789C36.8327 37.6326 35.2467 39.218 35.2467 41.1733V47.0745H33.811C33.8701 46.6738 33.9084 46.2652 33.9084 45.8459C33.9084 41.672 30.8678 38.2884 27.1171 38.2884C23.3663 38.2884 20.3256 41.672 20.3256 45.8459C20.3256 46.2652 20.3642 46.6738 20.4231 47.0745H19.1882V26.7745C19.1882 24.4714 17.3204 22.6045 15.0161 22.6045C12.712 22.6045 10.8441 24.4714 10.8441 26.7745V62.5748H19.1882V54.5493H35.2467V56.5163C35.2467 58.4718 36.8327 60.057 38.789 60.057H64.6874C66.6438 60.057 68.2296 58.4718 68.2296 56.5163V54.5493H70.8273V62.5748H79.1716V36.8458C79.1716 34.5427 77.3036 32.6757 74.9995 32.6757Z" fill="white"/>
</svg>
