<svg width="24" height="36" viewBox="0 0 24 36" fill="none" xmlns="http://www.w3.org/2000/svg">
<path fill-rule="evenodd" clip-rule="evenodd" d="M12.0001 0C5.3726 0 0 5.43458 0 12.1386C0 17.7102 8.28873 31.1248 11.0886 35.4974C11.5178 36.1675 12.4823 36.1675 12.9115 35.4974C15.7114 31.1248 24 17.7102 24 12.1386C24 5.43458 18.6275 0 12.0001 0ZM12.5001 18C9.46252 18 7 15.5376 7 12.5C7 9.46242 9.46252 7 12.5001 7C15.5376 7 18 9.46242 18 12.5C18 15.5376 15.5376 18 12.5001 18Z" fill="black" fill-opacity="0.5"/>
</svg>
