<svg width="90" height="90" viewBox="0 0 90 90" fill="none" xmlns="http://www.w3.org/2000/svg">
<path fill-rule="evenodd" clip-rule="evenodd" d="M89.896 44.9271C89.896 69.7398 69.772 89.8544 44.9479 89.8544C20.124 89.8544 0 69.7398 0 44.9271C0 20.1145 20.124 0 44.9479 0C69.772 0 89.896 20.1145 89.896 44.9271Z" fill="#D7433D"/>
<path fill-rule="evenodd" clip-rule="evenodd" d="M45.4901 20.8855C32.1601 20.8855 21.354 31.6866 21.354 45.0104C21.354 58.3341 32.1601 69.1354 45.4901 69.1354C58.8201 69.1354 69.6261 58.3341 69.6261 45.0104C69.6261 31.6866 58.8201 20.8855 45.4901 20.8855ZM45.4901 63.1915C35.4442 63.1915 27.3006 55.0516 27.3006 45.0104C27.3006 34.9693 35.4442 26.8294 45.4901 26.8294C55.5358 26.8294 63.6796 34.9693 63.6796 45.0104C63.6796 55.0516 55.5358 63.1915 45.4901 63.1915Z" fill="white"/>
<path fill-rule="evenodd" clip-rule="evenodd" d="M59.9484 45.0105C59.9484 52.9918 53.4751 59.4621 45.4901 59.4621C37.5049 59.4621 31.0317 52.9918 31.0317 45.0105C31.0317 37.0291 37.5049 30.5588 45.4901 30.5588C53.4751 30.5588 59.9484 37.0291 59.9484 45.0105Z" fill="white"/>
<path fill-rule="evenodd" clip-rule="evenodd" d="M16.7581 22.3618V34.0552C16.7581 34.5707 16.3404 34.9875 15.8253 34.9875C15.3103 34.9875 14.8926 34.5707 14.8926 34.0552V22.3618C14.8926 22.3618 14.4725 20.4971 13.95 20.4971C13.4275 20.4971 13.0076 22.3618 13.0076 22.3618V34.0552C13.0076 34.5707 12.5899 34.9875 12.0748 34.9875C11.5596 34.9875 11.1421 34.5707 11.1421 34.0552V22.3618C11.1421 22.3618 10.8218 20.4971 10.3112 20.4971C9.80063 20.4971 9.48041 22.3618 9.48041 22.3618V35.2984C9.48041 36.0065 10.0547 36.5804 10.763 36.5804H10.9185C11.627 36.5804 12.2012 37.1543 12.2012 37.8624V67.9992C12.2012 68.8413 12.8842 69.524 13.7266 69.524H14.329C15.1715 69.524 15.8545 68.8412 15.8545 67.9993V37.8624C15.8545 37.1543 16.4287 36.5804 17.1371 36.5804C17.8454 36.5804 18.4196 36.0065 18.4196 35.2984V22.3618C18.4196 22.3618 18.0995 20.4971 17.5888 20.4971C17.0783 20.4971 16.7581 22.3618 16.7581 22.3618Z" fill="white"/>
<path fill-rule="evenodd" clip-rule="evenodd" d="M78.4928 20.9306L78.7143 68.589C78.7179 69.3746 78.0816 70.0136 77.2956 70.0136H76.4083C75.6248 70.0136 74.9896 69.3786 74.9896 68.5955V47.1978C74.9896 47.0773 75.0134 46.9578 75.0592 46.8464L75.5643 45.6205C75.8633 44.8945 75.7129 44.0675 75.187 43.4845C74.5105 42.7346 73.6375 41.5854 73.2795 40.3333C72.6576 38.1577 72.812 28.2511 73.911 24.8813C74.7989 22.1591 75.4175 20.6296 77.2933 20.0491C77.8848 19.866 78.49 20.3117 78.4928 20.9306Z" fill="white"/>
</svg>
