<svg width="18" height="18" viewBox="0 0 18 18" fill="none" xmlns="http://www.w3.org/2000/svg">
<g style="mix-blend-mode:multiply">
<path fill-rule="evenodd" clip-rule="evenodd" d="M13.7351 12.6735L17.7796 16.718C18.0735 17.0118 18.0735 17.4857 17.7796 17.7796C17.4857 18.0735 17.0118 18.0735 16.718 17.7796L12.6735 13.7388C11.2922 14.8812 9.56939 15.502 7.75102 15.502C5.67918 15.502 3.73224 14.6939 2.2702 13.2318C0.80449 11.7661 0 9.81918 0 7.75102C0 5.67918 0.80449 3.73224 2.2702 2.2702C3.73592 0.80449 5.68286 0 7.75102 0C9.81918 0 11.7661 0.80449 13.2282 2.2702C14.6939 3.73592 15.4984 5.67918 15.4984 7.75102C15.4984 9.56571 14.8776 11.2886 13.7351 12.6735ZM1.49878 7.75102C1.49878 9.41878 2.14898 10.9873 3.33184 12.1665C4.51102 13.3494 6.07959 13.9996 7.74735 13.9996C9.4151 13.9996 10.9873 13.3494 12.1665 12.1702C13.3457 10.991 13.9959 9.41878 13.9959 7.75102C13.9959 6.07959 13.3457 4.51102 12.1665 3.33184C10.9873 2.15265 9.4151 1.50245 7.74735 1.50245C6.07592 1.50245 4.50735 2.15265 3.32816 3.33184C2.14898 4.51102 1.49878 6.08327 1.49878 7.75102Z" fill="#D7D7D7"/>
</g>
</svg>
