<svg width="90" height="90" viewBox="0 0 90 90" fill="none" xmlns="http://www.w3.org/2000/svg">
<path fill-rule="evenodd" clip-rule="evenodd" d="M89.896 44.9273C89.896 69.7398 69.772 89.8544 44.9479 89.8544C20.124 89.8544 0 69.7398 0 44.9273C0 20.1147 20.124 0 44.9479 0C69.772 0 89.896 20.1147 89.896 44.9273Z" fill="#D0D73D"/>
<path fill-rule="evenodd" clip-rule="evenodd" d="M71.7263 28.4194H70.8774C70.1662 28.4194 69.5897 28.9958 69.5897 29.7066V69.4602C69.5897 70.171 70.1662 70.7472 70.8774 70.7472H71.7263C75.031 70.7472 77.7101 68.0694 77.7101 64.7662V34.4006C77.7101 31.0974 75.031 28.4194 71.7263 28.4194Z" fill="#FFFEFE"/>
<path fill-rule="evenodd" clip-rule="evenodd" d="M66.152 70.6077H65.1503C64.6448 70.6077 64.235 70.2027 64.235 69.7032V29.4125C64.235 28.9129 64.6448 28.5081 65.1503 28.5081H66.152C66.6577 28.5081 67.0675 28.9129 67.0675 29.4125V69.7032C67.0675 70.2027 66.6577 70.6077 66.152 70.6077Z" fill="#FFFEFE"/>
<path fill-rule="evenodd" clip-rule="evenodd" d="M25.8932 70.6077H24.32C23.9722 70.6077 23.6903 70.3292 23.6903 69.9856V29.1302C23.6903 28.7865 23.9722 28.5081 24.32 28.5081H25.8932C26.2409 28.5081 26.5229 28.7865 26.5229 29.1302V69.9856C26.5229 70.3292 26.2409 70.6077 25.8932 70.6077Z" fill="#FFFEFE"/>
<path fill-rule="evenodd" clip-rule="evenodd" d="M59.7558 28.4279H54.9692V22.3821C54.9692 20.5634 53.5104 19.1052 51.6907 19.1052H37.5607C35.7412 19.1052 34.2823 20.5634 34.2823 22.3821V28.4279H31.4794C29.8566 28.4279 28.5451 29.7386 28.5451 31.3608V67.8163C28.5451 69.4383 29.8566 70.7492 31.4794 70.7492H59.7558C60.9688 70.7492 61.9523 69.766 61.9523 68.5373V30.6234C61.9523 29.411 60.9688 28.4279 59.7558 28.4279ZM37.3149 22.5459C37.3149 21.8741 37.8558 21.3335 38.5279 21.3335H51.2154C51.8712 21.3335 52.4285 21.8741 52.4285 22.5459V25.5771C52.4285 26.2488 51.8712 26.7894 51.2154 26.7894H38.5279C37.8558 26.7894 37.3149 26.2488 37.3149 25.5771V22.5459ZM39.6426 54.1188C39.5443 54.1844 39.4295 54.2499 39.3147 54.2826C39.2164 54.3154 39.1345 54.3482 39.0361 54.3809C38.9542 54.4137 38.8558 54.4466 38.7738 54.4629C38.6098 54.4957 38.446 54.5284 38.2985 54.5449C38.1346 54.5612 37.987 54.5777 37.8231 54.5777C37.5281 54.5777 37.2494 54.5449 36.9706 54.4792C36.7412 54.4302 36.5281 54.3646 36.3149 54.2826C35.856 54.0861 35.4462 53.8075 35.102 53.4472C34.9544 53.316 34.8233 53.1522 34.725 53.0047C34.2332 52.3656 33.971 51.5629 33.971 50.6945C33.971 50.547 33.9874 50.3995 34.0038 50.2522C34.0038 50.1702 34.0201 50.0719 34.0529 49.9735C34.0693 49.8752 34.0856 49.7769 34.1186 49.6951C34.1513 49.5476 34.2004 49.4166 34.2496 49.2854C34.2987 49.1543 34.3644 49.0233 34.4299 48.9086C34.4956 48.7938 34.5611 48.6957 34.6266 48.5973C34.9053 48.1877 35.2659 47.8271 35.6757 47.5486C35.7741 47.4831 35.8724 47.4175 35.9872 47.352C36.102 47.2865 36.233 47.221 36.3642 47.1718C36.4954 47.1227 36.6264 47.0735 36.7739 47.0407C36.856 47.008 36.9543 46.9917 37.0527 46.9752C37.1509 46.9425 37.2494 46.926 37.3314 46.926C37.4788 46.9097 37.6264 46.8933 37.7739 46.8933C38.5934 46.8933 39.3311 47.1227 39.954 47.5486C40.1671 47.6798 40.3638 47.8436 40.5277 48.0239C40.8884 48.3679 41.1671 48.7775 41.3638 49.2363C41.4457 49.4492 41.5113 49.6624 41.5605 49.8917C41.6261 50.1702 41.6587 50.4488 41.6587 50.7436C41.6587 50.9074 41.6424 51.0714 41.6261 51.2187C41.6096 51.3662 41.5769 51.53 41.5441 51.694C41.5113 51.7923 41.495 51.907 41.4457 52.0053C41.4129 52.0871 41.3965 52.1526 41.3638 52.2346C41.331 52.3493 41.2654 52.4639 41.1999 52.5623C41.1342 52.6771 41.0687 52.7752 41.0032 52.8901C40.9375 52.9884 40.8556 53.0865 40.7737 53.1849C40.4622 53.5617 40.0852 53.873 39.6426 54.1188ZM42.2981 66.3908L32.4137 65.2768L33.1186 58.8376L43.0357 59.9517L42.2981 66.3908ZM47.5435 34.7196L54.9692 36.6692L55.7396 36.8659L54.9692 39.7824L54.33 42.2073L46.1339 40.0446L47.5435 34.7196ZM46.1995 48.5153L54.4774 46.6965L54.9692 48.9086L55.6741 52.0708L54.9692 52.2346L47.396 53.9058L46.1995 48.5153ZM55.5429 64.6868C55.3462 64.6868 55.1495 64.6705 54.9692 64.6377C53.4776 64.3755 52.3464 63.0812 52.3464 61.5247C52.3464 59.9517 53.4776 58.6574 54.9692 58.3788C55.1495 58.3461 55.3462 58.3297 55.5429 58.3297C57.2805 58.3297 58.7066 59.7552 58.7066 61.5247C58.7066 63.2778 57.2805 64.6868 55.5429 64.6868Z" fill="#FFFEFE"/>
<path fill-rule="evenodd" clip-rule="evenodd" d="M17.1883 28.5081H19.6481C20.5142 28.5081 21.2164 29.2017 21.2164 30.0575V69.1978C21.2164 70.0535 20.5142 70.7472 19.6481 70.7472H17.1883C14.4254 70.7472 12.1859 68.5345 12.1859 65.8049V33.4504C12.1859 30.7208 14.4254 28.5081 17.1883 28.5081Z" fill="#FFFEFE"/>
</svg>
