<svg width="24" height="16" viewBox="0 0 24 16" fill="none" xmlns="http://www.w3.org/2000/svg">
<path fill-rule="evenodd" clip-rule="evenodd" d="M21 5V3C21 1.35001 19.65 0 18 0H6C4.35001 0 3 1.35001 3 3V5C1.35001 5 0 6.35001 0 8V13C0 14.65 1.35001 16 3 16H21C22.65 16 24 14.65 24 13V8C24 6.35001 22.65 5 21 5ZM5 3C5 2.45 5.45001 2 6 2H18C18.55 2 19 2.45 19 3V5.78C18.39 6.33 18 7.12 18 8V10H6V8C6 7.12 5.60999 6.33 5 5.78V3ZM21 14C21.55 14 22 13.55 22 13V8C22 7.45 21.55 7 21 7C20.45 7 20 7.45 20 8V12H4V8C4 7.45 3.54999 7 3 7C2.45001 7 2 7.45 2 8V13C2 13.55 2.45001 14 3 14H21Z" fill="black" fill-opacity="0.54"/>
</svg>
