<svg width="90" height="90" viewBox="0 0 90 90" fill="none" xmlns="http://www.w3.org/2000/svg">
<path fill-rule="evenodd" clip-rule="evenodd" d="M89.896 44.9271C89.896 69.7398 69.772 89.8544 44.9479 89.8544C20.124 89.8544 0 69.7398 0 44.9271C0 20.1145 20.124 0 44.9479 0C69.772 0 89.896 20.1145 89.896 44.9271Z" fill="#4069FF"/>
<path fill-rule="evenodd" clip-rule="evenodd" d="M44.9479 13.2222C27.4569 13.2222 13.2278 27.4448 13.2278 44.9277C13.2278 62.4086 27.4569 76.6323 44.9479 76.6323C62.4391 76.6323 76.6682 62.4086 76.6682 44.9277C76.6682 27.4448 62.4391 13.2222 44.9479 13.2222ZM46.8476 72.2898C46.7567 72.2959 46.6646 72.2982 46.5732 72.3036V54.0031C50.5535 54.0054 54.4634 54.8382 58.2197 56.4929C56.1552 62.283 52.3111 67.6093 46.7496 72.1702L46.8476 72.2898ZM32.1285 57.5598C35.8481 55.7281 39.6022 54.5861 43.3228 54.1728V72.3036C43.2453 72.299 43.1674 72.2971 43.0902 72.2918L43.19 72.1702C37.9747 67.895 34.2559 62.9438 32.1285 57.5598ZM46.5732 34.1922V18.0282C51.0584 22.5094 54.4935 27.3519 56.7601 32.3358C53.4572 33.5793 50.0405 34.1914 46.5732 34.1922ZM57.9844 35.383C58.8427 37.7937 59.4289 40.2242 59.7329 42.6522H46.5732V37.5325C46.5757 37.5325 46.5781 37.533 46.5806 37.533C50.461 37.533 54.2847 36.8025 57.9844 35.383ZM43.3228 34.0257C40.1478 33.675 36.9501 32.7964 33.7737 31.4214C36.008 26.8493 39.2169 22.4053 43.3228 18.2597V34.0257ZM43.3228 37.3645V42.6522H30.3115C30.669 39.8968 31.3823 37.1369 32.4509 34.4065C36.0634 35.9882 39.7058 36.9982 43.3228 37.3645ZM27.0393 42.6522H17.5915C18.0217 37.4473 19.9133 32.6628 22.8505 28.6824C25.045 30.3533 27.2703 31.7914 29.5174 32.9875C28.2463 36.1774 27.4201 39.4149 27.0393 42.6522ZM26.7966 45.9013C26.7801 46.6325 26.7857 47.3628 26.8171 48.0918C26.9337 50.8093 27.4062 53.4556 28.1696 56.0255C26.1159 57.1975 24.0879 58.5674 22.0939 60.1367C19.3516 56.0337 17.7108 51.1504 17.5255 45.9013H26.7966ZM30.0644 47.9518C30.0351 47.2699 30.0321 46.5861 30.0493 45.9013H43.3228V50.9907C39.2452 51.3953 35.1406 52.5747 31.0965 54.4946C30.5121 52.3666 30.1602 50.1824 30.0644 47.9518ZM46.5732 50.8292V45.9013H59.9825C59.9952 46.5374 59.9895 47.1728 59.9623 47.8067C59.8811 49.7039 59.5777 51.5594 59.1436 53.3845C55.0941 51.6788 50.8673 50.8292 46.5732 50.8292ZM63.2108 47.9455C63.2399 47.2653 63.2458 46.5835 63.2334 45.9013H72.3706C72.2001 50.7258 70.7837 55.2281 68.4258 59.1122C66.4086 57.4342 64.3167 55.9967 62.1559 54.8298C62.7391 52.5884 63.1098 50.2938 63.2108 47.9455ZM63.005 42.6522C62.6793 39.7808 61.9951 36.911 60.9662 34.0743C63.3065 32.9087 65.5791 31.4325 67.7755 29.6741C70.3064 33.4458 71.91 37.8794 72.3045 42.6522H63.005ZM65.7958 27.0939C63.8431 28.6584 61.8264 29.9948 59.7449 31.0412C57.7331 26.6032 54.8646 22.2869 51.2264 18.2203C56.9936 19.5752 62.0615 22.7391 65.7958 27.0939ZM38.9649 18.1441C35.572 21.9184 32.8514 25.9068 30.8498 30.0049C28.8554 28.9373 26.8785 27.6607 24.9266 26.1854C28.6361 22.2288 33.4878 19.3664 38.9649 18.1441ZM24.0606 62.7171C25.7708 61.3654 27.4985 60.1681 29.241 59.1308C31.033 63.5163 33.8123 67.6108 37.4812 71.328C32.1866 69.8292 27.5405 66.7927 24.0606 62.7171ZM52.4769 71.3119C56.4639 67.2743 59.3712 62.7849 61.1507 57.9762C63.0108 59.0366 64.8217 60.3122 66.5765 61.7987C63.0414 66.3163 58.1344 69.6962 52.4769 71.3119Z" fill="white"/>
</svg>
